<svg xmlns="http://www.w3.org/2000/svg" version="1.1" xmlns:xlink="http://www.w3.org/1999/xlink" viewBox="0 0 700 700" style="overflow: hidden; display: block;" width="700" height="700"><defs><linearGradient id="two-217" x1="350" y1="-350" x2="350" y2="350" spreadMethod="pad" gradientUnits="userSpaceOnUse"><stop offset="0%" stop-color="hsl(162, 100%, 58%)" stop-opacity="1"></stop><stop offset="100%" stop-color="hsl(270, 73%, 53%)" stop-opacity="1"></stop></linearGradient></defs><g id="two-0" transform="matrix(1 0 0 1 0 0)" opacity="1"><path transform="matrix(1 0 0 1 350 350)" id="two-221" d="M 309.859881 79.558495 C 301.600289 106.486694 264.856564 114.976187 244.443794 134.384113 C 227.852793 150.158401 213.315594 168.920635 197.257957 185.237551 C 181.369096 201.382966 161.027592 214.415453 147.693283 232.727375 C 128.489013 259.100479 134.520582 308.85666 104.513898 321.660703 C 77.077936 333.367802 48.089571 297.599369 18.490592 293.899559 C -6.271959 290.804292 -32.391099 302.960405 -56.979169 298.695259 C -81.580509 294.427811 -102.614646 276.143932 -126.462179 268.745809 C -152.939834 260.531755 -196.307086 277.20227 -208.883233 252.496453 C -233.962416 203.228443 -111.195956 148.676072 -138.370518 100.532065 C -153.152563 74.343352 -213.401372 116.386124 -228.962312 90.652592 C -240.879129 70.945442 -214.355994 45.977208 -203.437167 25.70009 C -194.405193 8.927005 -175.255938 -3.133769 -170.202617 -21.501591 C -166.047977 -36.602884 -169.305408 -53.830089 -173.830756 -68.824465 C -184.401219 -103.848847 -249.012069 -135.701044 -227.922627 -165.595481 C -207.522384 -194.512974 -151.820063 -128.352657 -122.186758 -147.698418 C -101.39669 -161.270974 -117.343778 -199.830927 -103.836276 -220.663319 C -91.572068 -239.578201 -67.7959 -248.875569 -50.152212 -262.907099 C -26.875722 -281.418239 -9.062023 -313.493809 20.092685 -319.364097 C 45.852657 -324.550856 81.160052 -318.630513 96.627208 -297.387969 C 126.354207 -256.560999 53.427008 -177.428766 91.657928 -144.429784 C 111.203091 -127.559395 144.534407 -167.602859 168.645771 -158.368921 C 186.598576 -151.493528 188.439994 -123.112575 204.372416 -112.354687 C 235.828797 -91.114715 297.437968 -114.52693 314.998985 -80.877994 C 328.05893 -55.853632 287.909277 -28.217184 287.153365 -0.000001 C 286.422215 27.292877 317.866178 53.456101 309.859881 79.558495 Z " fill="url(#two-217)" stroke="undefined" stroke-width="1" stroke-opacity="1" fill-opacity="1" visibility="visible" stroke-linecap="butt" stroke-linejoin="miter" stroke-miterlimit="4"></path></g></svg>